<svg id="Isolation_Mode" data-name="Isolation Mode" xmlns="http://www.w3.org/2000/svg" viewBox="0 0 8928.15 4034.55"><defs><style>.cls-1{fill:#f4f4f4;}.cls-2{fill:#232323;}.cls-3{fill:#f70f33;}.cls-4{fill:#f55f82;}.cls-5{fill:#f63d71;}.cls-6{fill:#fff;}</style></defs><rect class="cls-1" width="4975" height="2732.71"/><path class="cls-2" d="M2759.62,1244s-93.37-25.67-220.74,42.32c0,0-27.05,18.6-72.75,23s-87.36-.08-119.76.33c-10.49.14-15.49,18.78-1.85,40.56,13.3,23.32,69.36,56.64,124.32,55.51,0,0,95.82-.92,133.51-25.71,0,0-132.94,72.26-260.15,35-90.46-26.48-130.57-98.25-140.6-106.11-24.19-27.2-53.69-44.83-78.25-31.42-5.62,4.59-6.56,10.31-3.86,18.06,15.77,45.31,69,153.89,222.37,203.83,226.63,73.76,387.24,8.31,431.58-38.64C2828.82,1413.73,2936.66,1279.91,2759.62,1244Z"/><path class="cls-2" d="M2202.27,1295.78c13.08,14.19,31.91,37.21,44.59,51.54,27.94,31.56,60.51,48.16,85.29,58.06,0,0-31.16-17.6-48.26-55.3-7-15.52-27.36-53.36-54.07-70.75-26.79-19.12-59.15-7.21-59.15-7.21S2189.19,1281.6,2202.27,1295.78Z"/><path class="cls-2" d="M2247.17,1281.4c8.19,8.58,21.62,22.33,32.43,42s15.31,29.44,21.34,40.11,17.54,23.83,21.54,26.4c0,0-13.37-14.35-24.33-52.37-7.26-20-4.45-34.88-20.74-53.57-20.81-22.35-51.76-15.47-51.76-15.47S2239,1272.81,2247.17,1281.4Z"/><path class="cls-3" d="M2631.86,1088.67a144.47,144.47,0,0,1-288.83-7.79c1.19-44.13,24.81-86.91,73.52-130.35,39.33-35.07,97.84-31.59,22.09-184.82C2537.7,846.5,2636.51,939.35,2631.86,1088.67Z"/><path class="cls-4" d="M2539.78,1128l2.26-1.32,2.23-1.32,1-.55.55-.3c.2-.11.44-.29.67-.45.93-.64,2-1.31,3.09-2.18.54-.43,1.15-.84,1.72-1.33l1.79-1.52a64.57,64.57,0,0,0,7.67-8.18,77,77,0,0,0,7.64-11.92,105.65,105.65,0,0,0,6.54-15.57,145.73,145.73,0,0,0,4.69-18.45,193.13,193.13,0,0,0,2.71-20.18c.57-6.89.86-13.88.87-20.81s-.21-13.8-.61-20.47-1-13.12-1.67-19.25-1.48-11.92-2.31-17.27c-1.65-10.69-3.44-19.57-4.81-25.77s-2.31-9.71-2.31-9.71,1.66,3.23,4.31,9,6.29,14.19,10.21,24.47c2,5.14,4,10.76,6,16.77s4,12.41,5.87,19.12a308.92,308.92,0,0,1,9,43.22,221.75,221.75,0,0,1,1.8,23,177.49,177.49,0,0,1-.86,23,142.67,142.67,0,0,1-4.08,22,117.32,117.32,0,0,1-7.27,19.74,109.32,109.32,0,0,1-9.37,16l-2.44,3.28c-.78,1-1.63,2-2.4,3-1.54,1.92-3.1,3.55-4.49,5.06-.36.37-.67.73-1,1.1l-1.13,1.08-2.07,2-2.71,2.49-1.93,1.77h0A24.65,24.65,0,1,1,2535.6,1131,25.49,25.49,0,0,1,2539.78,1128Z"/><path class="cls-5" d="M2438.63,765.72l-.09-.08c62.5,52.92,76.3,149.34,31.95,216.59-22.82,34.61-55.52,62.74-74.51,99.88-23.6,46.16-5.57,84.9,17.55,126.72a110.85,110.85,0,0,1,6.39-86.86c20.36-38.87,61.85-62.1,87.17-97.93,19.78-28,28.79-63,26.93-97.22-2-37.8-17-73.66-39.25-103.94C2478.79,801.19,2459.12,783.07,2438.63,765.72Z"/><path class="cls-6" d="M2552.12,1056h-45.89a3.35,3.35,0,0,1-3.35-3.35v-45.9a3.35,3.35,0,0,0-3.35-3.35h-24.05a3.35,3.35,0,0,0-3.35,3.35v45.9a3.35,3.35,0,0,1-3.36,3.35h-45.89a3.35,3.35,0,0,0-3.35,3.35v24.05a3.35,3.35,0,0,0,3.35,3.35h45.89a3.35,3.35,0,0,1,3.36,3.35V1136a3.35,3.35,0,0,0,3.35,3.35h24.05a3.35,3.35,0,0,0,3.35-3.35v-45.9a3.35,3.35,0,0,1,3.35-3.35h45.89a3.35,3.35,0,0,0,3.35-3.35v-24.05A3.35,3.35,0,0,0,2552.12,1056Z"/><circle class="cls-3" cx="2419.53" cy="744.87" r="10.38"/><path class="cls-2" d="M7721.2,2584.34s-81.9-22.52-193.63,37.12c0,0-23.73,16.32-63.82,20.22s-76.63-.07-105.05.3c-9.2.11-13.59,16.46-1.62,35.57,11.66,20.45,60.84,49.68,109.05,48.7,0,0,84.05-.81,117.12-22.56,0,0-116.62,63.39-228.21,30.72-79.35-23.23-114.53-86.18-123.32-93.08-21.23-23.86-47.11-39.33-68.65-27.56-4.93,4-5.75,9-3.39,15.84,13.84,39.75,60.5,135,195.06,178.8,198.81,64.71,339.69,7.29,378.58-33.89C7781.9,2733.27,7876.5,2615.89,7721.2,2584.34Z"/><path class="cls-2" d="M7232.3,2629.81c11.47,12.44,28,32.64,39.11,45.2,24.51,27.69,53.08,42.25,74.81,50.94,0,0-27.32-15.45-42.32-48.51-6.18-13.62-24-46.81-47.43-62.06-23.5-16.77-51.89-6.33-51.89-6.33S7220.83,2617.37,7232.3,2629.81Z"/><path class="cls-2" d="M7271.69,2617.19c7.18,7.53,19,19.59,28.45,36.81s13.42,25.82,18.71,35.18,15.39,20.9,18.9,23.16c0,0-11.74-12.59-21.35-45.94-6.36-17.58-3.9-30.6-18.19-47-18.26-19.6-45.4-13.57-45.4-13.57S7264.5,2609.66,7271.69,2617.19Z"/><path class="cls-3" d="M7609.13,2448.13a126.73,126.73,0,0,1-253.36-6.83c1-38.71,21.77-76.24,64.49-114.34,34.5-30.77,85.82-27.72,19.38-162.13C7526.54,2235.7,7613.21,2317.15,7609.13,2448.13Z"/><path class="cls-4" d="M7528.36,2482.6l2-1.16,2-1.15.86-.48.49-.26c.18-.11.39-.27.59-.4.81-.57,1.77-1.15,2.71-1.92.47-.37,1-.73,1.5-1.16l1.57-1.34a56.73,56.73,0,0,0,6.73-7.17,67.55,67.55,0,0,0,6.71-10.46,91.69,91.69,0,0,0,5.73-13.66,127.38,127.38,0,0,0,4.12-16.18,168.5,168.5,0,0,0,2.37-17.7c.5-6,.75-12.18.77-18.26s-.18-12.1-.54-18-.87-11.51-1.47-16.88-1.29-10.46-2-15.15c-1.45-9.38-3-17.17-4.22-22.61s-2-8.52-2-8.52,1.45,2.84,3.78,7.93,5.51,12.45,9,21.47c1.72,4.51,3.5,9.44,5.26,14.71s3.52,10.89,5.15,16.77a270.9,270.9,0,0,1,7.85,37.91,192.67,192.67,0,0,1,1.58,20.15,155.41,155.41,0,0,1-.75,20.16,124.43,124.43,0,0,1-3.58,19.32,102.91,102.91,0,0,1-6.38,17.32,95,95,0,0,1-8.22,14c-.73,1-1.45,2-2.13,2.88s-1.43,1.77-2.11,2.6c-1.35,1.68-2.72,3.11-3.94,4.43-.32.34-.59.65-.91,1l-1,1-1.82,1.73c-.94.86-1.74,1.59-2.38,2.19-1.11,1-1.69,1.54-1.69,1.54h0a21.62,21.62,0,1,1-29.16-31.94A22.49,22.49,0,0,1,7528.36,2482.6Z"/><path class="cls-5" d="M7439.63,2164.84l-.08-.07c54.82,46.42,66.94,131,28,190-20,30.36-48.7,55-65.36,87.61-20.7,40.5-4.89,74.48,15.39,111.16a97.23,97.23,0,0,1,5.61-76.19c17.86-34.09,54.25-54.47,76.47-85.9,17.35-24.54,25.24-55.27,23.62-85.28-1.79-33.16-14.88-64.62-34.44-91.17C7474.86,2196,7457.6,2180.06,7439.63,2164.84Z"/><path class="cls-6" d="M7539.19,2419.46h-40.26a2.93,2.93,0,0,1-2.94-2.94v-40.26a2.94,2.94,0,0,0-2.94-2.94H7472a2.94,2.94,0,0,0-2.94,2.94v40.26a2.93,2.93,0,0,1-2.94,2.94h-40.26a2.94,2.94,0,0,0-2.94,2.94v21.1a2.94,2.94,0,0,0,2.94,2.94h40.26a2.93,2.93,0,0,1,2.94,2.94v40.26a2.94,2.94,0,0,0,2.94,2.94h21.1a2.94,2.94,0,0,0,2.94-2.94v-40.26a2.93,2.93,0,0,1,2.94-2.94h40.26a2.94,2.94,0,0,0,2.94-2.94v-21.1A2.94,2.94,0,0,0,7539.19,2419.46Z"/><circle class="cls-3" cx="7422.87" cy="2146.56" r="9.11"/><path class="cls-3" d="M1758.21,1822V1638.29h34.16V1822Zm23.55-90.32V1719h51v12.68Zm8.8-8.8V1709.2h25q12,0,18.18-5.24t6.15-15.46q0-9.33-6.54-14t-19.6-4.73h-22.64l-3.11-31.44h27q29,0,44.84,11.84t15.85,33.71q0,18.77-12.29,28.92t-34.81,10.15Zm0,99.12v-31.44h32.73q14,0,21.74-6.6t7.77-18.5q0-11.77-8.15-18.25t-23.17-6.47h-30.4l-3.11-13.71h50.72q23.94,0,36.94,11.64t13,32.87q0,24.06-15.08,37.26T1830.8,1822Z"/><path class="cls-3" d="M1913.48,1822V1638.29h34.16V1822Zm0,0v-31.44h126V1822Z"/><path class="cls-3" d="M2127.89,1824.62q-70,0-70-93.17,0-95.75,70-95.75t70,95.75Q2197.89,1824.61,2127.89,1824.62Zm0-32.61q34.16,0,34.16-60.56,0-63.27-34.16-63.27t-34.16,63.27Q2093.73,1792,2127.89,1792Z"/><path class="cls-3" d="M2283.16,1824.62q-70,0-70-93.17,0-95.75,70-95.75t70,95.75Q2353.16,1824.61,2283.16,1824.62Zm0-32.61q34.15,0,34.16-60.56,0-63.27-34.16-63.27T2249,1731.45Q2249,1792,2283.16,1792Z"/><path class="cls-3" d="M2379.3,1822V1638.29h34.16V1822Zm32.35,0v-32.74H2426q25.23,0,37.85-14.42t12.62-42.12q0-30.54-12.62-46.2T2426,1670.9h-13.84l-3.11-32.61h17q86.31,0,86.31,94.46,0,89.28-86.31,89.28Z"/><path class="cls-2" d="M2632.71,1822V1638.29h34.16V1822Zm23.55-90.32V1719h51v12.68Zm8.79-8.8V1709.2h25q12,0,18.18-5.24t6.14-15.46q0-9.33-6.53-14t-19.6-4.73h-22.65l-3.1-31.44h27q29,0,44.84,11.84t15.85,33.71q0,18.77-12.3,28.92t-34.8,10.15Zm0,99.12v-31.44h32.74q14,0,21.74-6.6t7.76-18.5q0-11.77-8.15-18.25t-23.16-6.47h-30.41l-3.1-13.71h50.72q23.94,0,36.94,11.64t13,32.87q0,24.06-15.08,37.26T2705.3,1822Z"/><path class="cls-2" d="M2773.1,1822l53.05-183.74h41.92l53,183.74h-36.87l-36-138.84H2846L2810,1822Zm26.78-34.81v-31.57h93.17v31.57Z"/><path class="cls-2" d="M2941.7,1822V1638.29h32.86V1822Zm70,0-32.35-143.63h-14.1v-40.11h27.82l32.35,143.63h8.67V1822Zm18.5,0V1638.29h32.87V1822Z"/><path class="cls-2" d="M3098.52,1822V1638.29h34.16V1822Zm18.51-58.49,2.33-34.29q18.38,0,31.76-7.63a65.58,65.58,0,0,0,22.13-20.57,93.87,93.87,0,0,0,12.94-29.18,133.59,133.59,0,0,0,4.2-33.58h34.68a152.4,152.4,0,0,1-7.24,47,127.71,127.71,0,0,1-21.16,40.18,101.24,101.24,0,0,1-34,27.88Q3142.65,1763.55,3117,1763.54Zm74.66,58.49-36.88-81.39,31.83-13.2,47.23,94.59Z"/><path class="cls-2" d="M1790.33,3913.7s-39.09-10.74-92.41,17.72c0,0-11.33,7.79-30.46,9.65s-36.57,0-50.13.14c-4.39.06-6.49,7.86-.77,17,5.56,9.76,29,23.71,52,23.24,0,0,40.11-.39,55.89-10.77,0,0-55.66,30.26-108.91,14.66-37.87-11.08-54.66-41.12-58.85-44.42-10.13-11.38-22.48-18.77-32.77-13.15-2.35,1.92-2.74,4.32-1.61,7.56,6.6,19,28.87,64.43,93.09,85.33,94.87,30.88,162.11,3.48,180.67-16.17C1819.29,3984.78,1864.44,3928.76,1790.33,3913.7Z"/><path class="cls-2" d="M1557,3935.4c5.48,5.94,13.36,15.58,18.67,21.58,11.7,13.21,25.33,20.16,35.7,24.31a54.1,54.1,0,0,1-20.2-23.16c-2.94-6.49-11.45-22.33-22.63-29.61-11.22-8-24.76-3-24.76-3A54.27,54.27,0,0,1,1557,3935.4Z"/><path class="cls-2" d="M1575.8,3929.38a82.4,82.4,0,0,1,13.58,17.57c4.52,8.22,6.4,12.32,8.93,16.79s7.34,10,9,11.05c0,0-5.6-6-10.19-21.92-3-8.39-1.86-14.6-8.68-22.43-8.71-9.35-21.67-6.47-21.67-6.47S1572.37,3925.79,1575.8,3929.38Z"/><path class="cls-3" d="M1736.84,3848.7a60.48,60.48,0,1,1-120.91-3.26c.5-18.47,10.39-36.38,30.78-54.57,16.46-14.68,41-13.22,9.25-77.37C1697.43,3747.32,1738.79,3786.19,1736.84,3848.7Z"/><path class="cls-4" d="M1698.29,3865.15l1-.55.94-.55.41-.23.23-.13.28-.18c.39-.28.84-.56,1.29-.92.23-.18.48-.35.72-.56l.75-.63a27.26,27.26,0,0,0,3.21-3.43,31.42,31.42,0,0,0,3.2-5,44.39,44.39,0,0,0,2.74-6.52,60,60,0,0,0,2-7.72,80.77,80.77,0,0,0,1.14-8.45c.24-2.88.36-5.81.36-8.71s-.09-5.77-.25-8.56-.42-5.5-.7-8.06-.62-5-1-7.23c-.69-4.48-1.44-8.2-2-10.79s-1-4.07-1-4.07.7,1.36,1.8,3.79,2.64,5.94,4.28,10.24c.82,2.15,1.67,4.51,2.51,7s1.68,5.2,2.46,8a130.15,130.15,0,0,1,3.75,18.09,93.1,93.1,0,0,1,.75,9.61,73.22,73.22,0,0,1-.36,9.62,59.61,59.61,0,0,1-1.71,9.22,48.61,48.61,0,0,1-3,8.27,46.31,46.31,0,0,1-3.92,6.69l-1,1.38c-.33.44-.68.84-1,1.24-.64.8-1.3,1.48-1.88,2.11-.15.16-.28.31-.43.46l-.48.46-.87.82-1.13,1-.81.73h0a10.32,10.32,0,0,1-13.92-15.25A11.75,11.75,0,0,1,1698.29,3865.15Z"/><path class="cls-5" d="M1656,3713.51l0,0c26.17,22.16,31.95,62.52,13.38,90.67-9.56,14.49-23.24,26.27-31.19,41.81-9.88,19.33-2.34,35.55,7.34,53.05a46.41,46.41,0,0,1,2.68-36.36c8.52-16.27,25.89-26,36.49-41,8.28-11.72,12.05-26.38,11.27-40.7-.85-15.83-7.1-30.84-16.43-43.51C1672.76,3728.35,1664.53,3720.77,1656,3713.51Z"/><path class="cls-6" d="M1703.46,3835h-19.21a1.4,1.4,0,0,1-1.4-1.4V3814.4a1.41,1.41,0,0,0-1.41-1.4h-10.07a1.4,1.4,0,0,0-1.4,1.4v19.22a1.4,1.4,0,0,1-1.4,1.4h-19.21a1.41,1.41,0,0,0-1.41,1.4v10.07a1.4,1.4,0,0,0,1.41,1.4h19.21a1.41,1.41,0,0,1,1.4,1.41v19.21a1.4,1.4,0,0,0,1.4,1.4h10.07a1.41,1.41,0,0,0,1.41-1.4V3849.3a1.4,1.4,0,0,1,1.4-1.41h19.21a1.39,1.39,0,0,0,1.4-1.4v-10.07A1.4,1.4,0,0,0,1703.46,3835Z"/><circle class="cls-3" cx="1647.95" cy="3704.78" r="4.35"/><path class="cls-3" d="M1990.4,3982V3798.29h34.16V3982Zm23.55-90.32V3879h51v12.68Zm8.8-8.8V3869.2h25q12,0,18.18-5.24t6.15-15.46q0-9.33-6.54-14t-19.6-4.73h-22.64l-3.11-31.44h27q29,0,44.84,11.84t15.85,33.71q0,18.76-12.29,28.92t-34.81,10.15Zm0,99.12v-31.44h32.74q14,0,21.73-6.6t7.77-18.51q0-11.76-8.15-18.24t-23.17-6.47h-30.4l-3.11-13.72h50.72q23.94,0,36.95,11.65t13,32.87q0,24.06-15.07,37.26T2063,3982Z"/><path class="cls-3" d="M2145.67,3982V3798.29h34.16V3982Zm0,0v-31.44h126V3982Z"/><path class="cls-3" d="M2360.08,3984.62q-70,0-70-93.17,0-95.74,70-95.75t70,95.75Q2430.08,3984.62,2360.08,3984.62Zm0-32.61q34.15,0,34.16-60.56,0-63.27-34.16-63.27t-34.16,63.27Q2325.92,3952,2360.08,3952Z"/><path class="cls-3" d="M2515.35,3984.62q-70,0-70-93.17,0-95.74,70-95.75t70,95.75Q2585.35,3984.62,2515.35,3984.62Zm0-32.61q34.16,0,34.16-60.56,0-63.27-34.16-63.27t-34.16,63.27Q2481.19,3952,2515.35,3952Z"/><path class="cls-3" d="M2611.49,3982V3798.29h34.16V3982Zm32.35,0v-32.74h14.36q25.23,0,37.85-14.42t12.62-42.12q0-30.54-12.62-46.2t-37.85-15.65h-13.84l-3.11-32.61h16.95q86.31,0,86.31,94.46,0,89.28-86.31,89.28Z"/><path class="cls-2" d="M2864.9,3982V3798.29h34.16V3982Zm23.55-90.32V3879h51v12.68Zm8.8-8.8V3869.2h25q12,0,18.18-5.24t6.14-15.46q0-9.33-6.53-14t-19.6-4.73h-22.65l-3.1-31.44h27q29,0,44.84,11.84t15.85,33.71q0,18.76-12.3,28.92t-34.8,10.15Zm0,99.12v-31.44H2930q14,0,21.74-6.6t7.76-18.51q0-11.76-8.15-18.24t-23.16-6.47h-30.41l-3.1-13.72h50.72q23.94,0,36.94,11.65t13,32.87q0,24.06-15.08,37.26t-42.76,13.2Z"/><path class="cls-2" d="M3005.29,3982l53.05-183.74h41.92L3153.32,3982h-36.88l-36-138.84h-2.33l-36,138.84Zm26.78-34.81v-31.57h93.17v31.57Z"/><path class="cls-2" d="M3173.89,3982V3798.29h32.87V3982Zm70,0-32.35-143.63h-14.1v-40.11h27.82l32.35,143.63h8.67V3982Zm18.51,0V3798.29h32.86V3982Z"/><path class="cls-2" d="M3330.72,3982V3798.29h34.16V3982Zm18.5-58.49,2.33-34.29q18.38,0,31.76-7.63a65.58,65.58,0,0,0,22.13-20.57,93.74,93.74,0,0,0,12.94-29.18,133.6,133.6,0,0,0,4.21-33.58h34.67a152.4,152.4,0,0,1-7.24,47,127.51,127.51,0,0,1-21.16,40.18,101.21,101.21,0,0,1-34,27.88Q3374.83,3923.55,3349.22,3923.54Zm74.66,58.49L3387,3900.64l31.83-13.2,47.23,94.59Z"/><path class="cls-2" d="M8193.91,2495.06s-17.13-4.71-40.49,7.76a30.5,30.5,0,0,1-13.34,4.23c-8.39.81-16,0-22,.06-1.92,0-2.84,3.44-.34,7.44,2.44,4.28,12.72,10.39,22.8,10.18,0,0,17.58-.17,24.49-4.71,0,0-24.38,13.25-47.72,6.42-16.59-4.86-23.95-18-25.79-19.46-4.43-5-9.85-8.23-14.35-5.77-1,.84-1.2,1.89-.71,3.32,2.89,8.31,12.65,28.22,40.79,37.38,41.57,13.53,71,1.53,79.16-7.08C8206.6,2526.2,8226.38,2501.66,8193.91,2495.06Z"/><path class="cls-2" d="M8091.68,2504.57c2.4,2.6,5.85,6.82,8.18,9.45a40.41,40.41,0,0,0,15.64,10.65,23.67,23.67,0,0,1-8.85-10.14c-1.29-2.85-5-9.79-9.92-13-4.91-3.51-10.85-1.32-10.85-1.32A23.5,23.5,0,0,1,8091.68,2504.57Z"/><path class="cls-2" d="M8099.91,2501.93a35.6,35.6,0,0,1,5.95,7.69c2,3.61,2.81,5.4,3.92,7.36a19.21,19.21,0,0,0,3.95,4.84s-2.46-2.63-4.47-9.6c-1.33-3.68-.81-6.4-3.8-9.83-3.82-4.1-9.49-2.84-9.49-2.84A11,11,0,0,1,8099.91,2501.93Z"/><path class="cls-3" d="M8170.48,2466.58a26.5,26.5,0,0,1-53-1.43c.21-8.1,4.55-15.94,13.48-23.91,7.21-6.43,18-5.8,4.05-33.9C8153.2,2422.16,8171.33,2439.19,8170.48,2466.58Z"/><path class="cls-4" d="M8153.58,2473.78l.42-.24.41-.24.18-.1.1,0,.12-.09c.17-.12.37-.24.57-.4l.32-.24.32-.28a11.56,11.56,0,0,0,1.41-1.5,13.81,13.81,0,0,0,1.4-2.19,18.36,18.36,0,0,0,1.2-2.85,25,25,0,0,0,.86-3.39,35.86,35.86,0,0,0,.5-3.7c.1-1.26.16-2.54.16-3.82s0-2.53-.11-3.75-.18-2.41-.31-3.53-.27-2.19-.42-3.17c-.31-2-.63-3.59-.88-4.73s-.43-1.78-.43-1.78.31.6.79,1.66,1.16,2.6,1.88,4.49c.36.94.73,2,1.1,3.08s.73,2.27,1.07,3.5a55,55,0,0,1,1.64,7.93,36.93,36.93,0,0,1,.33,4.21,31.16,31.16,0,0,1-.15,4.22,26.23,26.23,0,0,1-.75,4,22.4,22.4,0,0,1-1.33,3.62,20.41,20.41,0,0,1-1.72,2.93l-.45.6c-.14.2-.3.37-.44.55-.28.35-.57.65-.82.93-.07.06-.13.13-.2.2l-.2.2-.38.36-.5.45-.35.33h0a4.52,4.52,0,0,1-6.1-6.68A5.2,5.2,0,0,1,8153.58,2473.78Z"/><path class="cls-5" d="M8135,2407.34h0c11.47,9.7,14,27.39,5.87,39.72-4.19,6.35-10.19,11.51-13.67,18.32-4.33,8.47-1,15.58,3.22,23.25a20.34,20.34,0,0,1,1.17-15.94c3.73-7.12,11.34-11.39,16-18a28.38,28.38,0,0,0,4.94-17.83,35.76,35.76,0,0,0-7.2-19.07A63,63,0,0,0,8135,2407.34Z"/><path class="cls-6" d="M8155.85,2460.58h-8.42a.61.61,0,0,1-.61-.61v-8.42a.62.62,0,0,0-.62-.62h-4.41a.61.61,0,0,0-.61.62V2460a.61.61,0,0,1-.62.61h-8.42a.61.61,0,0,0-.61.62v4.41a.61.61,0,0,0,.61.61h8.42a.62.62,0,0,1,.62.62v8.42a.61.61,0,0,0,.61.61h4.41a.61.61,0,0,0,.62-.61v-8.42a.61.61,0,0,1,.61-.62h8.42a.61.61,0,0,0,.61-.61v-4.41A.61.61,0,0,0,8155.85,2460.58Z"/><circle class="cls-3" cx="8131.53" cy="2403.52" r="1.9"/><path class="cls-3" d="M8281.57,2525v-80.51h15V2525Zm10.32-39.58v-5.55h22.34v5.55Zm3.86-3.85v-6h10.94c3.52,0,6.17-.77,8-2.3s2.69-3.79,2.69-6.77a7.15,7.15,0,0,0-2.86-6.16c-1.91-1.37-4.78-2.06-8.59-2.06H8296l-1.36-13.78h11.85q12.71,0,19.65,5.19t6.94,14.76q0,8.23-5.38,12.68t-15.25,4.45Zm0,43.43v-13.78h14.34q6.12,0,9.53-2.89a10.09,10.09,0,0,0,3.4-8.11,9.61,9.61,0,0,0-3.57-8q-3.57-2.83-10.15-2.84H8296l-1.36-6h22.23q10.49,0,16.19,5.1t5.69,14.4q0,10.56-6.6,16.33t-18.74,5.79Z"/><path class="cls-3" d="M8349.61,2525v-80.51h15V2525Zm0,0v-13.78h55.22V2525Z"/><path class="cls-3" d="M8443.55,2526.13q-30.67,0-30.67-40.82,0-42,30.67-42t30.67,42Q8474.22,2526.13,8443.55,2526.13Zm0-14.29q15,0,15-26.53,0-27.72-15-27.73t-15,27.73Q8428.58,2511.85,8443.55,2511.84Z"/><path class="cls-3" d="M8511.59,2526.13q-30.68,0-30.68-40.82,0-42,30.68-42t30.67,42Q8542.26,2526.13,8511.59,2526.13Zm0-14.29q15,0,15-26.53,0-27.72-15-27.73t-15,27.73Q8496.62,2511.85,8511.59,2511.84Z"/><path class="cls-3" d="M8553.71,2525v-80.51h15V2525Zm14.17,0v-14.35h6.3q11.05,0,16.58-6.32t5.53-18.45q0-13.38-5.53-20.24t-16.58-6.86h-6.07l-1.36-14.29h7.43q37.81,0,37.81,41.39,0,39.12-37.81,39.12Z"/><path class="cls-2" d="M8664.74,2525v-80.51h15V2525Zm10.32-39.58v-5.55h22.34v5.55Zm3.86-3.85v-6h10.94c3.52,0,6.17-.77,8-2.3s2.69-3.79,2.69-6.77a7.15,7.15,0,0,0-2.86-6.16c-1.91-1.37-4.78-2.06-8.59-2.06h-9.93l-1.36-13.78h11.85q12.71,0,19.65,5.19t6.94,14.76q0,8.23-5.38,12.68t-15.25,4.45Zm0,43.43v-13.78h14.34q6.12,0,9.53-2.89a10.09,10.09,0,0,0,3.4-8.11,9.61,9.61,0,0,0-3.57-8q-3.57-2.83-10.15-2.84h-13.33l-1.36-6H8700q10.48,0,16.19,5.1t5.69,14.4q0,10.56-6.6,16.33t-18.74,5.79Z"/><path class="cls-2" d="M8726.26,2525l23.24-80.51h18.37l23.25,80.51H8775l-15.76-60.84h-1L8742.42,2525Zm11.73-15.25v-13.84h40.82v13.84Z"/><path class="cls-2" d="M8800.13,2525v-80.51h14.4V2525Zm30.67,0-14.17-62.94h-6.18v-17.57h12.19l14.17,62.93h3.8V2525Zm8.11,0v-80.51h14.4V2525Z"/><path class="cls-2" d="M8868.85,2525v-80.51h15V2525Zm8.1-25.63,1-15a27.64,27.64,0,0,0,13.92-3.35,28.64,28.64,0,0,0,9.7-9,41.17,41.17,0,0,0,5.67-12.79,58.36,58.36,0,0,0,1.84-14.71h15.19a66.69,66.69,0,0,1-3.17,20.58,55.9,55.9,0,0,1-9.27,17.6,44.24,44.24,0,0,1-14.88,12.22A43.42,43.42,0,0,1,8877,2499.37Zm32.72,25.63-16.16-35.67,13.95-5.78,20.69,41.45Z"/></svg>